<?xml version="1.0" encoding="UTF-8" standalone="no"?>
<!-- Created with Inkscape (http://www.inkscape.org/) -->

<svg
   xmlns:dc="http://purl.org/dc/elements/1.1/"
   xmlns:cc="http://creativecommons.org/ns#"
   xmlns:rdf="http://www.w3.org/1999/02/22-rdf-syntax-ns#"
   xmlns:svg="http://www.w3.org/2000/svg"
   xmlns="http://www.w3.org/2000/svg"
   version="1.1"
   width="867.5"
   height="456.25"
   id="svg2"
   xml:space="preserve"><metadata
     id="metadata8"><rdf:RDF><cc:Work
         rdf:about=""><dc:format>image/svg+xml</dc:format><dc:type
           rdf:resource="http://purl.org/dc/dcmitype/StillImage" /><dc:title></dc:title></cc:Work></rdf:RDF></metadata><defs
     id="defs6"><clipPath
       id="clipPath18"><path
         d="M 0,0 694,0 694,365 0,365 0,0 z"
         id="path20" /></clipPath></defs><g
     transform="matrix(1.25,0,0,-1.25,0,456.25)"
     id="g10"><g
       id="g12" /><g
       id="g14"><g
         clip-path="url(#clipPath18)"
         id="g16"><path
           d="m -6.5,467.5 1152,0 0,-733 -1152,0 0,733 z"
           id="path22"
           style="fill:#ffffff;fill-opacity:1;fill-rule:nonzero;stroke:none" /><g
           transform="matrix(1,0,0,-1,-5.5,466.5)"
           id="g24"><path
             d="m 22,235 110,0 c 2.7614,0 5,2.2386 5,5 l 0,85 c 0,2.7614 -2.2386,5 -5,5 l -110,0 c -2.76142,0 -5,-2.2386 -5,-5 l 0,-85 c 0,-2.7614 2.23858,-5 5,-5 z"
             id="path26"
             style="fill:none;stroke:#000000;stroke-width:1;stroke-linecap:round;stroke-linejoin:round;stroke-miterlimit:10;stroke-opacity:1;stroke-dasharray:4, 4;stroke-dashoffset:0" /></g><g
           transform="matrix(1,0,0,-1,71,184.5)"
           id="g28"><text
             transform="translate(-18.00439,-4)"
             id="text30"><tspan
               x="0 12.9996 23.0112 36.010799"
               y="0"
               id="tspan32"
               style="font-size:18px;font-variant:normal;font-weight:normal;writing-mode:lr-tb;fill:#000000;fill-opacity:1;fill-rule:nonzero;stroke:none;font-family:Helvetica;-inkscape-font-specification:Helvetica">New </tspan></text>
</g><g
           transform="matrix(1,0,0,-1,71,184.5)"
           id="g34"><text
             transform="translate(-47.52686,18)"
             id="text36"><tspan
               x="0 5.0004001 15.012 25.0236 34.023602 39.023998 43.023602 53.035198 63.046799 73.058403 77.057999 81.057602 86.057999"
               y="0"
               id="tspan38"
               style="font-size:18px;font-variant:normal;font-weight:normal;writing-mode:lr-tb;fill:#000000;fill-opacity:1;fill-rule:nonzero;stroke:none;font-family:Helvetica;-inkscape-font-specification:Helvetica">functionality</tspan></text>
</g><g
           transform="matrix(1,0,0,-1,-5.5,466.5)"
           id="g40"><path
             d="m 144,233 49.0299,-36.1273"
             id="path42"
             style="fill:none;stroke:#000000;stroke-width:1;stroke-linecap:round;stroke-linejoin:round;stroke-miterlimit:10;stroke-opacity:1;stroke-dasharray:4, 4;stroke-dashoffset:0" /></g><path
           d="m 193.9704,274.3729 -8.22,-2.3304 3.5591,-4.8303 4.6609,7.1607 z"
           id="path44"
           style="fill:#000000;fill-opacity:1;fill-rule:nonzero;stroke:none" /><g
           transform="matrix(1,0,0,-1,-5.5,466.5)"
           id="g46"><path
             d="m 199.4704,192.1271 -8.22,2.3304 3.5591,4.8303 4.6609,-7.1607 z"
             id="path48"
             style="fill:none;stroke:#000000;stroke-width:1;stroke-linecap:butt;stroke-linejoin:miter;stroke-miterlimit:10;stroke-opacity:1;stroke-dasharray:none" /></g><g
           transform="matrix(1,0,0,-1,139,270)"
           id="g50"><text
             transform="translate(-21.99902,7)"
             id="text52"><tspan
               x="0 5.994 11.988 21.999599 27.993601 38.005199"
               y="0"
               id="tspan54"
               style="font-size:18px;font-variant:normal;font-weight:normal;writing-mode:lr-tb;fill:#000000;fill-opacity:1;fill-rule:nonzero;stroke:none;font-family:Helvetica;-inkscape-font-specification:Helvetica">(rare)</tspan></text>
</g><g
           transform="matrix(1,0,0,-1,-5.5,466.5)"
           id="g56"><path
             d="m 208,343 110,0 c 2.7614,0 5,2.2386 5,5 l 0,85 c 0,2.7614 -2.2386,5 -5,5 l -110,0 c -2.7614,0 -5,-2.2386 -5,-5 l 0,-85 c 0,-2.7614 2.2386,-5 5,-5 z"
             id="path58"
             style="fill:none;stroke:#000000;stroke-width:1;stroke-linecap:round;stroke-linejoin:round;stroke-miterlimit:10;stroke-opacity:1;stroke-dasharray:none" /></g><g
           transform="matrix(1,0,0,-1,257,76.5)"
           id="g60"><text
             transform="translate(-52.52344,-13.5)"
             id="text62"><tspan
               x="0 12.006 21.006001 31.017599 41.029202 47.023201 51.0228 66.0168 76.028397 86.040001 91.040398 101.052"
               y="0"
               id="tspan64"
               style="font-size:18px;font-variant:normal;font-weight:normal;writing-mode:lr-tb;fill:#000000;fill-opacity:1;fill-rule:nonzero;stroke:none;font-family:Helvetica;-inkscape-font-specification:Helvetica">Experimental</tspan></text>
</g><g
           transform="matrix(1,0,0,-1,257,76.5)"
           id="g66"><text
             transform="translate(-24.00391,27.5)"
             id="text68"><tspan
               x="0 9.6015997 19.203199 28.8048 38.406399"
               y="0"
               id="tspan70"
               style="font-size:16px;font-variant:normal;font-weight:normal;writing-mode:lr-tb;fill:#000000;fill-opacity:1;fill-rule:nonzero;stroke:none;font-family:Courier New;-inkscape-font-specification:Courier">as-of</tspan></text>
</g><g
           transform="matrix(1,0,0,-1,-5.5,466.5)"
           id="g72"><path
             d="m 208,128 110,0 c 2.7614,0 5,2.2386 5,5 l 0,85 c 0,2.7614 -2.2386,5 -5,5 l -110,0 c -2.7614,0 -5,-2.2386 -5,-5 l 0,-85 c 0,-2.7614 2.2386,-5 5,-5 z"
             id="path74"
             style="fill:none;stroke:#000000;stroke-width:1;stroke-linecap:round;stroke-linejoin:round;stroke-miterlimit:10;stroke-opacity:1;stroke-dasharray:none" /></g><g
           transform="matrix(1,0,0,-1,257,291.5)"
           id="g76"><text
             transform="translate(-25.51904,-13.5)"
             id="text78"><tspan
               x="0 12.006 17.006399 27.018 37.029598 41.029202"
               y="0"
               id="tspan80"
               style="font-size:18px;font-variant:normal;font-weight:normal;writing-mode:lr-tb;fill:#000000;fill-opacity:1;fill-rule:nonzero;stroke:none;font-family:Helvetica;-inkscape-font-specification:Helvetica">Stable</tspan></text>
</g><g
           transform="matrix(1,0,0,-1,257,291.5)"
           id="g82"><text
             transform="translate(-24.00391,27.5)"
             id="text84"><tspan
               x="0 9.6015997 19.203199 28.8048 38.406399"
               y="0"
               id="tspan86"
               style="font-size:16px;font-variant:normal;font-weight:normal;writing-mode:lr-tb;fill:#000000;fill-opacity:1;fill-rule:nonzero;stroke:none;font-family:Courier New;-inkscape-font-specification:Courier">as-of</tspan></text>
</g><g
           transform="matrix(1,0,0,-1,-5.5,466.5)"
           id="g88"><path
             d="m 264,333.5 -1.8106,-94.6018"
             id="path90"
             style="fill:none;stroke:#000000;stroke-width:1;stroke-linecap:round;stroke-linejoin:round;stroke-miterlimit:10;stroke-opacity:1;stroke-dasharray:none" /></g><path
           d="m 256.5364,235.6003 -2.8464,-8.0559 5.9989,0.1148 -3.1525,7.9411 z"
           id="path92"
           style="fill:#000000;fill-opacity:1;fill-rule:nonzero;stroke:none" /><g
           transform="matrix(1,0,0,-1,-5.5,466.5)"
           id="g94"><path
             d="m 262.0364,230.8997 -2.8464,8.0559 5.9989,-0.1148 -3.1525,-7.9411 z"
             id="path96"
             style="fill:none;stroke:#000000;stroke-width:1;stroke-linecap:butt;stroke-linejoin:miter;stroke-miterlimit:10;stroke-opacity:1;stroke-dasharray:none" /></g><g
           transform="matrix(1,0,0,-1,-5.5,466.5)"
           id="g98"><path
             d="m 144,331 49.0299,36.1273"
             id="path100"
             style="fill:none;stroke:#000000;stroke-width:1;stroke-linecap:round;stroke-linejoin:round;stroke-miterlimit:10;stroke-opacity:1;stroke-dasharray:none" /></g><path
           d="m 193.9704,94.62708 -4.6609,7.16072 -3.5591,-4.8303 8.22,-2.33042 z"
           id="path102"
           style="fill:#000000;fill-opacity:1;fill-rule:nonzero;stroke:none" /><g
           transform="matrix(1,0,0,-1,-5.5,466.5)"
           id="g104"><path
             d="m 199.4704,371.8729 -4.6609,-7.1607 -3.5591,4.8303 8.22,2.3304 z"
             id="path106"
             style="fill:none;stroke:#000000;stroke-width:1;stroke-linecap:butt;stroke-linejoin:miter;stroke-miterlimit:10;stroke-opacity:1;stroke-dasharray:none" /></g><g
           transform="matrix(1,0,0,-1,-5.5,466.5)"
           id="g108"><path
             d="m 401,113 110,0 c 2.7614,0 5,2.2386 5,5 l 0,115 c 0,2.7614 -2.2386,5 -5,5 l -110,0 c -2.7614,0 -5,-2.2386 -5,-5 l 0,-115 c 0,-2.7614 2.2386,-5 5,-5 z"
             id="path110"
             style="fill:none;stroke:#000000;stroke-width:1;stroke-linecap:round;stroke-linejoin:round;stroke-miterlimit:10;stroke-opacity:1;stroke-dasharray:none" /></g><g
           transform="matrix(1,0,0,-1,450,291.5)"
           id="g112"><text
             transform="translate(-46.5293,-29.5)"
             id="text114"><tspan
               x="0 12.9996 23.0112 33.0228 39.0168 49.0284 58.0284 68.040001 73.040398 83.052002"
               y="0"
               id="tspan116"
               style="font-size:18px;font-variant:normal;font-weight:normal;writing-mode:lr-tb;fill:#000000;fill-opacity:1;fill-rule:nonzero;stroke:none;font-family:Helvetica;-inkscape-font-specification:Helvetica">Deprecated</tspan></text>
</g><g
           transform="matrix(1,0,0,-1,450,291.5)"
           id="g118"><text
             transform="translate(-21.00342,10.5)"
             id="text120"><tspan
               x="0 8.4013996 16.802799 25.204201 33.605598"
               y="0"
               id="tspan122"
               style="font-size:14px;font-variant:normal;font-weight:normal;writing-mode:lr-tb;fill:#000000;fill-opacity:1;fill-rule:nonzero;stroke:none;font-family:Courier New;-inkscape-font-specification:Courier">as-of</tspan></text>
</g><g
           transform="matrix(1,0,0,-1,450,291.5)"
           id="g124"><text
             transform="translate(-21.00342,27.5)"
             id="text126"><tspan
               x="0 8.4013996 16.802799 25.204201 33.605598"
               y="0"
               id="tspan128"
               style="font-size:14px;font-variant:normal;font-weight:normal;writing-mode:lr-tb;fill:#000000;fill-opacity:1;fill-rule:nonzero;stroke:none;font-family:Courier New;-inkscape-font-specification:Courier">until</tspan></text>
</g><g
           transform="matrix(1,0,0,-1,450,291.5)"
           id="g130"><text
             transform="translate(-25.2041,44.5)"
             id="text132"><tspan
               x="0 8.4013996 16.802799 25.204201 33.605598 42.007"
               y="0"
               id="tspan134"
               style="font-size:14px;font-variant:normal;font-weight:normal;writing-mode:lr-tb;fill:#000000;fill-opacity:1;fill-rule:nonzero;stroke:none;font-family:Courier New;-inkscape-font-specification:Courier">reason</tspan></text>
</g><g
           transform="matrix(1,0,0,-1,-5.5,466.5)"
           id="g136"><path
             d="m 331,175.5 47.1,0"
             id="path138"
             style="fill:none;stroke:#000000;stroke-width:1;stroke-linecap:round;stroke-linejoin:round;stroke-miterlimit:10;stroke-opacity:1;stroke-dasharray:none" /></g><path
           d="m 380.6,291 -8,3 0,-6 8,3 z"
           id="path140"
           style="fill:#000000;fill-opacity:1;fill-rule:nonzero;stroke:none" /><g
           transform="matrix(1,0,0,-1,-5.5,466.5)"
           id="g142"><path
             d="m 386.1,175.5 -8,-3 0,6 8,-3 z"
             id="path144"
             style="fill:none;stroke:#000000;stroke-width:1;stroke-linecap:butt;stroke-linejoin:miter;stroke-miterlimit:10;stroke-opacity:1;stroke-dasharray:none" /></g><g
           transform="matrix(1,0,0,-1,-5.5,466.5)"
           id="g146"><path
             d="m 567,235 110,0 c 2.7614,0 5,2.2386 5,5 l 0,85 c 0,2.7614 -2.2386,5 -5,5 l -110,0 c -2.7614,0 -5,-2.2386 -5,-5 l 0,-85 c 0,-2.7614 2.2386,-5 5,-5 z"
             id="path148"
             style="fill:none;stroke:#000000;stroke-width:1;stroke-linecap:round;stroke-linejoin:round;stroke-miterlimit:10;stroke-opacity:1;stroke-dasharray:4, 4;stroke-dashoffset:0" /></g><g
           transform="matrix(1,0,0,-1,616,184.5)"
           id="g150"><text
             transform="translate(-38.51807,7)"
             id="text152"><tspan
               x="0 12.9996 23.0112 38.005199 48.0168 57.0168 67.028397"
               y="0"
               id="tspan154"
               style="font-size:18px;font-variant:normal;font-weight:normal;writing-mode:lr-tb;fill:#000000;fill-opacity:1;fill-rule:nonzero;stroke:none;font-family:Helvetica;-inkscape-font-specification:Helvetica">Removed</tspan></text>
</g><g
           transform="matrix(1,0,0,-1,614.5,295.5)"
           id="g156"><text
             transform="translate(-56.40332,-3)"
             id="text158"><tspan
               x="0 3.8892 14 21.7868 25.676001 33.462799 38.124802 42.014 53.675999 61.462799 66.124802 73.911598 77.800797 89.462799 92.573601 100.3604 108.1472 112.8092"
               y="0"
               id="tspan160"
               style="font-size:14px;font-variant:normal;font-weight:normal;writing-mode:lr-tb;fill:#000000;fill-opacity:1;fill-rule:nonzero;stroke:none;font-family:Helvetica;-inkscape-font-specification:Helvetica">two or more minor </tspan></text>
</g><g
           transform="matrix(1,0,0,-1,614.5,295.5)"
           id="g162"><text
             transform="translate(-65.37207,14)"
             id="text164"><tspan
               x="0 4.6620002 12.4488 15.5596 23.346399 31.1332 38.133202 45.919998 52.919998 56.8092 59.919998 67.706802 71.596001 75.485199 83.272003 91.0588 94.947998 98.837196 106.624 110.5132 118.3 122.962 130.74879"
               y="0"
               id="tspan166"
               style="font-size:14px;font-variant:normal;font-weight:normal;writing-mode:lr-tb;fill:#000000;fill-opacity:1;fill-rule:nonzero;stroke:none;font-family:Helvetica;-inkscape-font-specification:Helvetica">releases in the future </tspan></text>
</g><g
           transform="matrix(1,0,0,-1,614.5,74)"
           id="g168"><text
             transform="translate(-57.18945,-3)"
             id="text170"><tspan
               x="0 7.7867999 15.5736 23.360399 27.249599 35.0364 39.698399 43.587601 55.249599 63.0364 67.698402 75.485199 79.374397 91.0364 94.147202 101.934 109.7208 114.3828"
               y="0"
               id="tspan172"
               style="font-size:14px;font-variant:normal;font-weight:normal;writing-mode:lr-tb;fill:#000000;fill-opacity:1;fill-rule:nonzero;stroke:none;font-family:Helvetica;-inkscape-font-specification:Helvetica">one or more minor </tspan></text>
</g><g
           transform="matrix(1,0,0,-1,614.5,74)"
           id="g174"><text
             transform="translate(-65.37207,14)"
             id="text176"><tspan
               x="0 4.6620002 12.4488 15.5596 23.346399 31.1332 38.133202 45.919998 52.919998 56.8092 59.919998 67.706802 71.596001 75.485199 83.272003 91.0588 94.947998 98.837196 106.624 110.5132 118.3 122.962 130.74879"
               y="0"
               id="tspan178"
               style="font-size:14px;font-variant:normal;font-weight:normal;writing-mode:lr-tb;fill:#000000;fill-opacity:1;fill-rule:nonzero;stroke:none;font-family:Helvetica;-inkscape-font-specification:Helvetica">releases in the future </tspan></text>
</g><g
           transform="matrix(1,0,0,-1,-5.5,466.5)"
           id="g180"><path
             d="m 529,391 49.0299,-36.1273"
             id="path182"
             style="fill:none;stroke:#000000;stroke-width:1;stroke-linecap:round;stroke-linejoin:round;stroke-miterlimit:10;stroke-opacity:1;stroke-dasharray:none" /></g><path
           d="m 578.9704,116.3729 -8.22,-2.3304 3.5591,-4.8303 4.6609,7.1607 z"
           id="path184"
           style="fill:#000000;fill-opacity:1;fill-rule:nonzero;stroke:none" /><g
           transform="matrix(1,0,0,-1,-5.5,466.5)"
           id="g186"><path
             d="m 584.4704,350.1271 -8.22,2.3304 3.5591,4.8303 4.6609,-7.1607 z"
             id="path188"
             style="fill:none;stroke:#000000;stroke-width:1;stroke-linecap:butt;stroke-linejoin:miter;stroke-miterlimit:10;stroke-opacity:1;stroke-dasharray:none" /></g><g
           transform="matrix(1,0,0,-1,-5.5,466.5)"
           id="g190"><path
             d="m 529,176 49.0299,36.1273"
             id="path192"
             style="fill:none;stroke:#000000;stroke-width:1;stroke-linecap:round;stroke-linejoin:round;stroke-miterlimit:10;stroke-opacity:1;stroke-dasharray:none" /></g><path
           d="m 578.9704,249.6271 -4.6609,7.1607 -3.5591,-4.8303 8.22,-2.3304 z"
           id="path194"
           style="fill:#000000;fill-opacity:1;fill-rule:nonzero;stroke:none" /><g
           transform="matrix(1,0,0,-1,-5.5,466.5)"
           id="g196"><path
             d="m 584.4704,216.8729 -4.6609,-7.1607 -3.5591,4.8303 8.22,2.3304 z"
             id="path198"
             style="fill:none;stroke:#000000;stroke-width:1;stroke-linecap:butt;stroke-linejoin:miter;stroke-miterlimit:10;stroke-opacity:1;stroke-dasharray:none" /></g><g
           transform="matrix(1,0,0,-1,-5.5,466.5)"
           id="g200"><path
             d="m 333,390 47.1,0"
             id="path202"
             style="fill:none;stroke:#000000;stroke-width:1;stroke-linecap:round;stroke-linejoin:round;stroke-miterlimit:10;stroke-opacity:1;stroke-dasharray:none" /></g><path
           d="m 382.6,76.5 -8,3 0,-6 8,3 z"
           id="path204"
           style="fill:#000000;fill-opacity:1;fill-rule:nonzero;stroke:none" /><g
           transform="matrix(1,0,0,-1,-5.5,466.5)"
           id="g206"><path
             d="m 388.1,390 -8,-3 0,6 8,-3 z"
             id="path208"
             style="fill:none;stroke:#000000;stroke-width:1;stroke-linecap:butt;stroke-linejoin:miter;stroke-miterlimit:10;stroke-opacity:1;stroke-dasharray:none" /></g><g
           transform="matrix(1,0,0,-1,-5.5,466.5)"
           id="g210"><path
             d="m 401,331 110,0 c 2.7614,0 5,2.2386 5,5 l 0,115 c 0,2.7614 -2.2386,5 -5,5 l -110,0 c -2.7614,0 -5,-2.2386 -5,-5 l 0,-115 c 0,-2.7614 2.2386,-5 5,-5 z"
             id="path212"
             style="fill:none;stroke:#000000;stroke-width:1;stroke-linecap:round;stroke-linejoin:round;stroke-miterlimit:10;stroke-opacity:1;stroke-dasharray:none" /></g><g
           transform="matrix(1,0,0,-1,450,73.5)"
           id="g214"><text
             transform="translate(-46.5293,-29.5)"
             id="text216"><tspan
               x="0 12.9996 23.0112 33.0228 39.0168 49.0284 58.0284 68.040001 73.040398 83.052002"
               y="0"
               id="tspan218"
               style="font-size:18px;font-variant:normal;font-weight:normal;writing-mode:lr-tb;fill:#000000;fill-opacity:1;fill-rule:nonzero;stroke:none;font-family:Helvetica;-inkscape-font-specification:Helvetica">Deprecated</tspan></text>
</g><g
           transform="matrix(1,0,0,-1,450,73.5)"
           id="g220"><text
             transform="translate(-21.00342,10.5)"
             id="text222"><tspan
               x="0 8.4013996 16.802799 25.204201 33.605598"
               y="0"
               id="tspan224"
               style="font-size:14px;font-variant:normal;font-weight:normal;writing-mode:lr-tb;fill:#000000;fill-opacity:1;fill-rule:nonzero;stroke:none;font-family:Courier New;-inkscape-font-specification:Courier">as-of</tspan></text>
</g><g
           transform="matrix(1,0,0,-1,450,73.5)"
           id="g226"><text
             transform="translate(-21.00342,27.5)"
             id="text228"><tspan
               x="0 8.4013996 16.802799 25.204201 33.605598"
               y="0"
               id="tspan230"
               style="font-size:14px;font-variant:normal;font-weight:normal;writing-mode:lr-tb;fill:#000000;fill-opacity:1;fill-rule:nonzero;stroke:none;font-family:Courier New;-inkscape-font-specification:Courier">until</tspan></text>
</g><g
           transform="matrix(1,0,0,-1,450,73.5)"
           id="g232"><text
             transform="translate(-25.2041,44.5)"
             id="text234"><tspan
               x="0 8.4013996 16.802799 25.204201 33.605598 42.007"
               y="0"
               id="tspan236"
               style="font-size:14px;font-variant:normal;font-weight:normal;writing-mode:lr-tb;fill:#000000;fill-opacity:1;fill-rule:nonzero;stroke:none;font-family:Courier New;-inkscape-font-specification:Courier">reason</tspan></text>
</g></g></g></g></svg>